<?xml version="1.0" encoding="utf-8"?>
<svg version="1.1" id="Layer_1" xmlns="http://www.w3.org/2000/svg" xmlns:xlink="http://www.w3.org/1999/xlink" x="0px" y="0px"
	 width="106px" height="185px" viewBox="0 0 106 185" style="enable-background:new 0 0 106 185;" xml:space="preserve">
<style type="text/css">
	.st0{fill:#101820;}
	.st1{fill:#D50032;}
</style>
<rect class="st0" width="106" height="185"/>
<g>
	<polygon class="st1" points="53,154.1667175 53,185 68.5882645,185 86.2549362,154.1667175 101.2195435,154.1667175 
		83.5528793,185 98.5176239,185 106,171.9411316 106,123.3332901 	"/>
	<polygon class="st1" points="10.1842928,154.1667175 0,171.9411316 0,185 7.4823737,185 25.1490402,154.1667175 	"/>
	<polygon class="st1" points="72.7450943,123.3333969 57.7803879,123.3333969 75.4470596,92.5000458 90.4117584,92.5000458 	"/>
	<polygon class="st1" points="63.1842918,61.6667099 53,79.441185 53,105.5588226 78.1490402,61.6667099 	"/>
	<path class="st1" d="M0,61.6667137v61.6665764l53,30.8334274v-48.6079788l-10.1842918,17.7745514H27.8509598L53,79.441124
		V30.8332882L0,61.6667137z M30.5528793,92.5h-14.964612l17.6666641-30.8332863h14.9646149L30.5528793,92.5z"/>
	<polygon class="st1" points="80.8509598,30.8332882 98.5176239,0 53,0 53,30.8332882 106,61.6667137 106,13.0587387 
		95.8157043,30.8332882 	"/>
	<polygon class="st1" points="19.7450943,30.8333588 4.7803884,30.8333588 22.4470596,0.0000122 37.4117584,0.0000122 	"/>
	<polygon class="st1" points="7.4823737,0 0,0 0,13.0587387 	"/>
</g>
</svg>
