<?xml version="1.0" encoding="utf-8"?>
<svg version="1.1" id="Layer_1" xmlns="http://www.w3.org/2000/svg" xmlns:xlink="http://www.w3.org/1999/xlink" x="0px" y="0px"
	 width="128px" height="185px" viewBox="0 0 128 185" style="enable-background:new 0 0 128 185;" xml:space="preserve">
<style type="text/css">
	.st0{fill:#AF371B;}
	.st1{fill:#990D14;}
	.st2{fill:#351D0D;}
</style>
<g>
	<g id="Orange_10_">
		<polygon class="st0" points="72,41.6196899 72,106.3720703 128,138.7482605 128,120.2476196 88,97.1217194 88,50.8700409 
			120,32.3761902 120,0 104,0 104,23.1258411 		"/>
		<polygon class="st0" points="40,50.8700409 40,97.1217194 0,120.2476196 0,138.7482605 56,106.3720703 56,41.6196899 
			24,23.1258411 24,0 8,0 8,32.3761902 		"/>
		<polygon class="st0" points="64,120.2476196 8,152.6238098 8,185 24,185 24,161.8741608 64,138.7482605 104,161.8741608 104,185 
			120,185 120,152.6238098 		"/>
	</g>
	<g id="Red_10_">
		<polygon class="st1" points="24,60.120388 0,46.2448349 0,101.7469254 24,87.871376 		"/>
		<polygon class="st1" points="64,157.2489624 40,171.1245117 40,185 88,185 88,171.1245117 		"/>
		<polygon class="st1" points="64,27.7509842 88,13.8754921 88,0 40,0 40,13.8754921 		"/>
		<polygon class="st1" points="104,87.871376 128,101.7469254 128,46.2448349 104,60.120388 		"/>
	</g>
	<g id="Brown_10_">
		<polygon class="st2" points="56,41.6196899 56,106.3720703 0,138.7482605 0,185 8,185 8,152.6238098 64,120.2476196 
			120,152.6238098 120,185 128,185 128,138.7482605 72,106.3720703 72,41.6196899 104,23.1258411 104,0 88,0 88,13.8754921 
			64,27.7509842 40,13.8754921 40,0 24,0 24,23.1258411 		"/>
		<polygon class="st2" points="64,138.7482605 24,161.8741608 24,185 40,185 40,171.1245117 64,157.2489624 88,171.1245117 88,185 
			104,185 104,161.8741608 		"/>
		<polygon class="st2" points="0,46.2448349 24,60.120388 24,87.871376 0,101.7469254 0,120.2476196 40,97.1217194 40,50.8700409 
			8,32.3761902 8,0 0,0 		"/>
		<polygon class="st2" points="88,50.8700409 88,97.1217194 128,120.2476196 128,101.7469254 104,87.871376 104,60.120388 
			128,46.2448349 128,0 120,0 120,32.3761902 		"/>
		<g id="Voron_Logo_Pieces_11_">
			<polygon class="st2" points="67.3882294,184.9999847 60.6117668,184.9999847 68.611763,171.1244659 75.388237,171.1244659 			"/>
			<polygon class="st2" points="53.8352928,184.9999847 47.0588264,184.9999847 55.0588264,171.1244659 61.8352966,171.1244659 			
				"/>
			<polygon class="st2" points="72.9411774,13.875515 66.1647034,13.875515 74.1647034,0 80.9411774,0 			"/>
			<polygon class="st2" points="59.388237,13.875515 52.6117668,13.875515 60.6117668,0 67.388237,0 			"/>
			<polygon class="st2" points="116.6117554,87.871376 123.3882446,87.871376 128,79.8725662 128,68.119194 			"/>
			<polygon class="st2" points="117.8352966,73.995903 111.0588226,73.995903 119.0588226,60.1203842 125.8352966,60.1203842 			"/>
			<polygon class="st2" points="8.9411755,87.8714142 2.1647041,87.8714142 10.1647062,73.995903 16.9411736,73.995903 			"/>
			<polygon class="st2" points="4.6117554,60.120388 0,68.119194 0,79.8725662 11.3882446,60.120388 			"/>
		</g>
	</g>
</g>
</svg>
